<svg width="24" height="24" viewBox="0 0 24 24" fill="none" xmlns="http://www.w3.org/2000/svg">
<path d="M11.0384 13.5502C11.046 12.2132 11.4068 11.8029 12.045 11.4003C12.5122 11.104 12.8692 10.7698 12.8692 10.2684C12.8692 9.73664 12.4514 9.38719 11.9272 9.38719C11.4296 9.38719 10.9662 9.72145 10.9397 10.3482H9.41272C9.44311 8.84023 10.5674 8.11475 11.9386 8.11475C13.439 8.11475 14.4987 8.89341 14.4987 10.219C14.4987 11.104 14.0429 11.6662 13.3326 12.0916C12.7325 12.4525 12.4628 12.8019 12.459 13.5502V13.6717H11.0384V13.5502ZM10.8751 15.1949C10.8675 14.7011 11.2815 14.2984 11.7791 14.2984C12.2577 14.2984 12.6755 14.7011 12.6793 15.1949C12.6755 15.6924 12.2577 16.0951 11.7791 16.0951C11.2815 16.0951 10.8675 15.6924 10.8751 15.1949Z" fill="#68687C"/>
<path fill-rule="evenodd" clip-rule="evenodd" d="M17 4.5H7C5.61929 4.5 4.5 5.61929 4.5 7V17C4.5 18.3807 5.61929 19.5 7 19.5H12.6739C12.7986 20.0278 12.9876 20.5307 13.2322 21H7C4.79086 21 3 19.2091 3 17V7C3 4.79086 4.79086 3 7 3H17C19.2091 3 21 4.79086 21 7V11.8135C20.5218 11.659 20.0195 11.5585 19.5 11.5189V7C19.5 5.61929 18.3807 4.5 17 4.5Z" fill="#68687C"/>
<path fill-rule="evenodd" clip-rule="evenodd" d="M19 23C21.7614 23 24 20.7614 24 18C24 15.2386 21.7614 13 19 13C16.2386 13 14 15.2386 14 18C14 20.7614 16.2386 23 19 23ZM19 15.25C19.4142 15.25 19.75 15.5858 19.75 16V17.25H21C21.4142 17.25 21.75 17.5858 21.75 18C21.75 18.4142 21.4142 18.75 21 18.75H19.75V20C19.75 20.4142 19.4142 20.75 19 20.75C18.5858 20.75 18.25 20.4142 18.25 20V18.75H17C16.5858 18.75 16.25 18.4142 16.25 18C16.25 17.5858 16.5858 17.25 17 17.25H18.25V16C18.25 15.5858 18.5858 15.25 19 15.25Z" fill="#68687C"/>
</svg>
