<svg width="18" height="18" viewBox="0 0 18 18" fill="none" xmlns="http://www.w3.org/2000/svg">
<path d="M11 14H17M14 17V11M2.6 1H5.4C5.61011 1 5.81817 1.04139 6.01229 1.12179C6.20641 1.2022 6.3828 1.32006 6.53137 1.46863C6.67994 1.6172 6.7978 1.79359 6.87821 1.98771C6.95861 2.18183 7 2.38988 7 2.6V5.4C7 5.61011 6.95861 5.81817 6.87821 6.01229C6.7978 6.20641 6.67994 6.3828 6.53137 6.53137C6.3828 6.67994 6.20641 6.7978 6.01229 6.87821C5.81817 6.95861 5.61011 7 5.4 7H2.6C2.17565 7 1.76869 6.83143 1.46863 6.53137C1.16857 6.23131 1 5.82435 1 5.4V2.6C1 2.17565 1.16857 1.76869 1.46863 1.46863C1.76869 1.16857 2.17565 1 2.6 1ZM2.6 11H5.4C5.82435 11 6.23131 11.1686 6.53137 11.4686C6.83143 11.7687 7 12.1757 7 12.6V15.4C7 15.8243 6.83143 16.2313 6.53137 16.5314C6.23131 16.8314 5.82435 17 5.4 17H2.6C2.17565 17 1.76869 16.8314 1.46863 16.5314C1.16857 16.2313 1 15.8243 1 15.4V12.6C1 12.1757 1.16857 11.7687 1.46863 11.4686C1.76869 11.1686 2.17565 11 2.6 11ZM12.6 1H15.4C15.8243 1 16.2313 1.16857 16.5314 1.46863C16.8314 1.76869 17 2.17565 17 2.6V5.4C17 5.82435 16.8314 6.23131 16.5314 6.53137C16.2313 6.83143 15.8243 7 15.4 7H12.6C12.1757 7 11.7687 6.83143 11.4686 6.53137C11.1686 6.23131 11 5.82435 11 5.4V2.6C11 2.17565 11.1686 1.76869 11.4686 1.46863C11.7687 1.16857 12.1757 1 12.6 1Z" stroke="#68687C" stroke-width="1.5" stroke-miterlimit="10" stroke-linecap="round" stroke-linejoin="round"/>
</svg>
